<svg width="390" height="503" viewBox="0 0 390 503" fill="none" xmlns="http://www.w3.org/2000/svg">
<path fill-rule="evenodd" clip-rule="evenodd" d="M386.439 159.804C386.482 159.307 386.524 158.808 386.562 158.309C386.852 154.578 387 150.806 387 147C387 143.194 386.852 139.422 386.562 135.691C386.524 135.192 386.482 134.693 386.439 134.196C386.395 133.697 386.348 133.199 386.299 132.702L389.321 132.467L389.553 135.458C389.849 139.267 390 143.116 390 147C390 150.884 389.849 154.733 389.553 158.542L389.321 161.533L386.299 161.298C386.348 160.801 386.395 160.303 386.439 159.804ZM374.895 204.881L377.695 206.042L378.844 203.271C381.769 196.217 384.161 188.886 385.969 181.329L386.667 178.411L383.719 177.706C383.613 178.195 383.504 178.683 383.393 179.17C383.282 179.658 383.168 180.145 383.052 180.631C381.281 188.033 378.938 195.213 376.073 202.121C375.882 202.584 375.688 203.044 375.491 203.504C375.295 203.964 375.096 204.423 374.895 204.881ZM350.528 242.782L352.832 244.751L354.781 242.471C359.773 236.632 364.316 230.396 368.355 223.818L369.925 221.262L367.342 219.676C367.089 220.107 366.834 220.538 366.577 220.966C366.32 221.395 366.06 221.823 365.799 222.249C361.842 228.692 357.392 234.801 352.501 240.522C352.176 240.902 351.849 241.28 351.521 241.657C351.192 242.033 350.861 242.408 350.528 242.782ZM315.676 271.342L317.262 273.925L319.818 272.355C326.396 268.316 332.632 263.773 338.471 258.781L340.751 256.832L338.782 254.528C338.408 254.861 338.033 255.192 337.657 255.521C337.28 255.849 336.902 256.176 336.522 256.501C330.801 261.392 324.692 265.842 318.249 269.799C317.823 270.06 317.395 270.32 316.966 270.577C316.538 270.834 316.107 271.089 315.676 271.342ZM273.706 287.719L274.411 290.667L277.329 289.969C284.886 288.161 292.217 285.769 299.271 282.844L302.042 281.695L300.881 278.895C300.423 279.096 299.964 279.295 299.504 279.491C299.044 279.688 298.584 279.882 298.121 280.073C291.213 282.938 284.033 285.281 276.631 287.052C276.145 287.168 275.658 287.282 275.17 287.393C274.683 287.504 274.195 287.613 273.706 287.719ZM228.702 290.299L228.467 293.321L231.458 293.553C235.267 293.849 239.116 294 243 294C246.884 294 250.733 293.849 254.542 293.553L257.533 293.321L257.298 290.299C256.801 290.348 256.303 290.395 255.804 290.439C255.307 290.482 254.808 290.524 254.309 290.562C250.578 290.852 246.806 291 243 291C239.194 291 235.422 290.852 231.691 290.562C231.192 290.524 230.693 290.482 230.196 290.439C229.697 290.395 229.199 290.348 228.702 290.299ZM185.119 278.895L183.958 281.695L186.729 282.844C193.783 285.769 201.114 288.161 208.671 289.969L211.589 290.667L212.294 287.719C211.805 287.613 211.317 287.504 210.83 287.393C210.342 287.282 209.855 287.168 209.369 287.052C201.967 285.281 194.787 282.938 187.879 280.073C187.416 279.882 186.956 279.688 186.496 279.491C186.036 279.295 185.577 279.096 185.119 278.895ZM147.218 254.528L145.249 256.832L147.529 258.781C153.368 263.773 159.604 268.316 166.182 272.355L168.738 273.925L170.324 271.342C169.893 271.089 169.462 270.834 169.034 270.577C168.605 270.32 168.177 270.06 167.751 269.799C161.308 265.842 155.199 261.392 149.478 256.501C149.098 256.176 148.72 255.849 148.343 255.521C147.967 255.192 147.592 254.861 147.218 254.528ZM118.658 219.676L116.075 221.262L117.645 223.818C121.684 230.396 126.227 236.632 131.219 242.471L133.168 244.751L135.472 242.782C135.139 242.408 134.808 242.033 134.479 241.657C134.151 241.28 133.824 240.902 133.499 240.522C128.608 234.801 124.158 228.692 120.201 222.249C119.94 221.823 119.68 221.395 119.423 220.966C119.166 220.538 118.911 220.107 118.658 219.676ZM102.281 177.706L99.3326 178.411L100.031 181.329C101.839 188.886 104.231 196.217 107.156 203.271L108.305 206.042L111.105 204.881C110.904 204.423 110.705 203.964 110.509 203.504C110.312 203.044 110.118 202.584 109.927 202.121C107.062 195.213 104.719 188.033 102.948 180.631C102.832 180.145 102.718 179.658 102.607 179.17C102.496 178.683 102.387 178.195 102.281 177.706ZM99.7009 132.702L96.6789 132.467L96.4466 135.458C96.1507 139.267 96 143.116 96 147C96 150.884 96.1507 154.733 96.4466 158.542L96.6789 161.533L99.7009 161.298C99.6519 160.801 99.6054 160.303 99.5615 159.804C99.5176 159.307 99.4763 158.808 99.4376 158.309C99.1477 154.578 99 150.806 99 147C99 143.194 99.1477 139.422 99.4376 135.691C99.4763 135.192 99.5176 134.693 99.5615 134.196C99.6054 133.697 99.6519 133.199 99.7009 132.702ZM111.105 89.1194L108.305 87.9582L107.156 90.7294C104.231 97.783 101.839 105.114 100.031 112.671L99.3326 115.589L102.281 116.294C102.387 115.805 102.496 115.317 102.607 114.83C102.718 114.342 102.832 113.855 102.948 113.369C104.719 105.967 107.062 98.7872 109.927 91.8786C110.118 91.4165 110.312 90.9556 110.509 90.496C110.705 90.0359 110.904 89.577 111.105 89.1194ZM135.472 51.2183L133.168 49.2487L131.219 51.529C126.227 57.3682 121.684 63.6035 117.645 70.1815L116.075 72.738L118.658 74.3242C118.911 73.8926 119.166 73.4625 119.423 73.0337C119.68 72.6048 119.94 72.1774 120.201 71.7514C124.158 65.3076 128.608 59.1991 133.499 53.4784C133.824 53.0983 134.151 52.72 134.479 52.3433C134.808 51.9666 135.139 51.5916 135.472 51.2183ZM170.324 22.658L168.738 20.0749L166.182 21.6448C159.604 25.6843 153.368 30.2268 147.529 35.2186L145.249 37.168L147.218 39.4719C147.592 39.1392 147.967 38.8084 148.343 38.4795C148.72 38.1507 149.098 37.8238 149.478 37.4989C155.199 32.6084 161.308 28.1583 167.751 24.2013C168.177 23.9397 168.605 23.6802 169.034 23.423C169.462 23.1658 169.893 22.9108 170.324 22.658ZM212.294 6.28087L211.589 3.33261L208.671 4.03067C201.114 5.83883 193.783 8.2306 186.729 11.1556L183.958 12.3048L185.119 15.105C185.577 14.9039 186.036 14.7051 186.496 14.5086C186.956 14.3124 187.416 14.1184 187.879 13.9268C194.787 11.0619 201.967 8.71931 209.369 6.94833C209.855 6.83207 210.342 6.71827 210.83 6.60695C211.317 6.49578 211.805 6.38708 212.294 6.28087ZM257.298 3.7009L257.533 0.678941L254.542 0.446578C250.733 0.150673 246.884 0 243 0C239.116 0 235.267 0.150673 231.458 0.446577L228.467 0.678939L228.702 3.7009C229.199 3.6519 229.697 3.60542 230.196 3.56148C230.693 3.51764 231.192 3.47633 231.691 3.43756C235.422 3.14766 239.194 3 243 3C246.806 3 250.578 3.14766 254.309 3.43757C254.808 3.47633 255.307 3.51764 255.804 3.56149C256.303 3.60542 256.801 3.6519 257.298 3.7009ZM300.881 15.105L302.042 12.3048L299.271 11.1556C292.217 8.2306 284.886 5.83883 277.329 4.03067L274.411 3.33261L273.706 6.28087C274.195 6.38708 274.683 6.49578 275.17 6.60695C275.658 6.71827 276.145 6.83207 276.631 6.94833C284.033 8.71931 291.213 11.0619 298.121 13.9268C298.584 14.1184 299.044 14.3124 299.504 14.5086C299.964 14.7051 300.423 14.9039 300.881 15.105ZM338.782 39.4719L340.751 37.168L338.471 35.2186C332.632 30.2268 326.396 25.6843 319.818 21.6448L317.262 20.0749L315.676 22.658C316.107 22.9108 316.538 23.1658 316.966 23.423C317.395 23.6802 317.823 23.9397 318.249 24.2013C324.692 28.1583 330.801 32.6084 336.522 37.4989C336.902 37.8238 337.28 38.1507 337.657 38.4795C338.033 38.8084 338.408 39.1392 338.782 39.4719ZM367.342 74.3242L369.925 72.738L368.355 70.1815C364.316 63.6035 359.773 57.3682 354.781 51.529L352.832 49.2487L350.528 51.2183C350.861 51.5916 351.192 51.9666 351.521 52.3433C351.849 52.72 352.176 53.0983 352.501 53.4784C357.392 59.1991 361.842 65.3076 365.799 71.7514C366.06 72.1774 366.32 72.6048 366.577 73.0337C366.834 73.4624 367.089 73.8926 367.342 74.3242ZM383.719 116.294L386.667 115.589L385.969 112.671C384.161 105.114 381.769 97.783 378.844 90.7294L377.695 87.9582L374.895 89.1194C375.096 89.577 375.295 90.0359 375.491 90.496C375.688 90.9556 375.882 91.4165 376.073 91.8785C378.938 98.7872 381.281 105.967 383.052 113.369C383.168 113.855 383.282 114.342 383.393 114.83C383.504 115.317 383.613 115.805 383.719 116.294Z" fill="#05AA6E" fill-opacity="0.16"/>
<path fill-rule="evenodd" clip-rule="evenodd" d="M290.439 368.804C290.482 368.307 290.524 367.808 290.562 367.309C290.852 363.578 291 359.806 291 356C291 352.194 290.852 348.422 290.562 344.691C290.524 344.192 290.482 343.693 290.439 343.196C290.395 342.697 290.348 342.199 290.299 341.702L293.321 341.467L293.553 344.458C293.849 348.267 294 352.116 294 356C294 359.884 293.849 363.733 293.553 367.542L293.321 370.533L290.299 370.298C290.348 369.801 290.395 369.303 290.439 368.804ZM278.895 413.881L281.695 415.042L282.844 412.271C285.769 405.217 288.161 397.886 289.969 390.329L290.667 387.411L287.719 386.706C287.613 387.195 287.504 387.683 287.393 388.17C287.282 388.658 287.168 389.145 287.052 389.631C285.281 397.033 282.938 404.213 280.073 411.121C279.882 411.583 279.688 412.044 279.491 412.504C279.295 412.964 279.096 413.423 278.895 413.881ZM254.528 451.782L256.832 453.751L258.781 451.471C263.773 445.632 268.316 439.396 272.355 432.818L273.925 430.262L271.342 428.676C271.089 429.107 270.834 429.538 270.577 429.966C270.32 430.395 270.06 430.823 269.799 431.249C265.842 437.692 261.392 443.801 256.501 449.522C256.176 449.902 255.849 450.28 255.521 450.657C255.192 451.033 254.861 451.408 254.528 451.782ZM219.676 480.342L221.262 482.925L223.818 481.355C230.396 477.316 236.632 472.773 242.471 467.781L244.751 465.832L242.782 463.528C242.408 463.861 242.033 464.192 241.657 464.521C241.28 464.849 240.902 465.176 240.522 465.501C234.801 470.392 228.692 474.842 222.249 478.799C221.823 479.06 221.395 479.32 220.966 479.577C220.538 479.834 220.107 480.089 219.676 480.342ZM177.706 496.719L178.411 499.667L181.329 498.969C188.886 497.161 196.217 494.769 203.271 491.844L206.042 490.695L204.881 487.895C204.423 488.096 203.964 488.295 203.504 488.491C203.044 488.688 202.584 488.882 202.121 489.073C195.213 491.938 188.033 494.281 180.631 496.052C180.145 496.168 179.658 496.282 179.17 496.393C178.683 496.504 178.195 496.613 177.706 496.719ZM132.702 499.299L132.467 502.321L135.458 502.553C139.267 502.849 143.116 503 147 503C150.884 503 154.733 502.849 158.542 502.553L161.533 502.321L161.298 499.299C160.801 499.348 160.303 499.395 159.804 499.439C159.307 499.482 158.808 499.524 158.309 499.562C154.578 499.852 150.806 500 147 500C143.194 500 139.422 499.852 135.691 499.562C135.192 499.524 134.693 499.482 134.196 499.439C133.697 499.395 133.199 499.348 132.702 499.299ZM89.1194 487.895L87.9582 490.695L90.7294 491.844C97.783 494.769 105.114 497.161 112.671 498.969L115.589 499.667L116.294 496.719C115.805 496.613 115.317 496.504 114.83 496.393C114.342 496.282 113.855 496.168 113.369 496.052C105.967 494.281 98.7872 491.938 91.8786 489.073C91.4165 488.882 90.9556 488.688 90.496 488.491C90.0359 488.295 89.577 488.096 89.1194 487.895ZM51.2183 463.528L49.2487 465.832L51.529 467.781C57.3682 472.773 63.6035 477.316 70.1815 481.355L72.738 482.925L74.3242 480.342C73.8926 480.089 73.4625 479.834 73.0337 479.577C72.6048 479.32 72.1774 479.06 71.7514 478.799C65.3076 474.842 59.1991 470.392 53.4784 465.501C53.0983 465.176 52.72 464.849 52.3433 464.521C51.9666 464.192 51.5916 463.861 51.2183 463.528ZM22.658 428.676L20.0749 430.262L21.6448 432.818C25.6843 439.396 30.2268 445.632 35.2186 451.471L37.168 453.751L39.4719 451.782C39.1392 451.408 38.8084 451.033 38.4795 450.657C38.1507 450.28 37.8238 449.902 37.4989 449.522C32.6084 443.801 28.1583 437.692 24.2013 431.249C23.9397 430.823 23.6802 430.395 23.423 429.966C23.1658 429.538 22.9108 429.107 22.658 428.676ZM6.28087 386.706L3.33261 387.411L4.03067 390.329C5.83883 397.886 8.2306 405.217 11.1556 412.271L12.3048 415.042L15.105 413.881C14.9039 413.423 14.7051 412.964 14.5086 412.504C14.3124 412.044 14.1184 411.584 13.9268 411.121C11.0619 404.213 8.71931 397.033 6.94833 389.631C6.83207 389.145 6.71827 388.658 6.60695 388.17C6.49578 387.683 6.38708 387.195 6.28087 386.706ZM3.7009 341.702L0.678941 341.467L0.446578 344.458C0.150673 348.267 0 352.116 0 356C0 359.884 0.150673 363.733 0.446577 367.542L0.678939 370.533L3.7009 370.298C3.6519 369.801 3.60542 369.303 3.56148 368.804C3.51764 368.307 3.47633 367.808 3.43756 367.309C3.14766 363.578 3 359.806 3 356C3 352.194 3.14766 348.422 3.43757 344.691C3.47633 344.192 3.51764 343.693 3.56149 343.196C3.60542 342.697 3.6519 342.199 3.7009 341.702ZM15.105 298.119L12.3048 296.958L11.1556 299.729C8.2306 306.783 5.83883 314.114 4.03067 321.671L3.33261 324.589L6.28087 325.294C6.38708 324.805 6.49578 324.317 6.60695 323.83C6.71827 323.342 6.83207 322.855 6.94833 322.369C8.71931 314.967 11.0619 307.787 13.9268 300.879C14.1184 300.417 14.3124 299.956 14.5086 299.496C14.7051 299.036 14.9039 298.577 15.105 298.119ZM39.4719 260.218L37.168 258.249L35.2186 260.529C30.2268 266.368 25.6843 272.604 21.6448 279.182L20.0749 281.738L22.658 283.324C22.9108 282.893 23.1658 282.462 23.423 282.034C23.6802 281.605 23.9397 281.177 24.2013 280.751C28.1583 274.308 32.6084 268.199 37.4989 262.478C37.8238 262.098 38.1507 261.72 38.4795 261.343C38.8084 260.967 39.1392 260.592 39.4719 260.218ZM74.3242 231.658L72.738 229.075L70.1815 230.645C63.6035 234.684 57.3682 239.227 51.529 244.219L49.2487 246.168L51.2183 248.472C51.5916 248.139 51.9666 247.808 52.3433 247.479C52.72 247.151 53.0983 246.824 53.4784 246.499C59.1991 241.608 65.3076 237.158 71.7514 233.201C72.1774 232.94 72.6048 232.68 73.0337 232.423C73.4624 232.166 73.8926 231.911 74.3242 231.658ZM116.294 215.281L115.589 212.333L112.671 213.031C105.114 214.839 97.783 217.231 90.7294 220.156L87.9582 221.305L89.1194 224.105C89.577 223.904 90.0359 223.705 90.496 223.509C90.9556 223.312 91.4165 223.118 91.8785 222.927C98.7872 220.062 105.967 217.719 113.369 215.948C113.855 215.832 114.342 215.718 114.83 215.607C115.317 215.496 115.805 215.387 116.294 215.281ZM161.298 212.701L161.533 209.679L158.542 209.447C154.733 209.151 150.884 209 147 209C143.116 209 139.267 209.151 135.458 209.447L132.467 209.679L132.702 212.701C133.199 212.652 133.697 212.605 134.196 212.561C134.693 212.518 135.192 212.476 135.691 212.438C139.422 212.148 143.194 212 147 212C150.806 212 154.578 212.148 158.309 212.438C158.808 212.476 159.307 212.518 159.804 212.561C160.303 212.605 160.801 212.652 161.298 212.701ZM204.881 224.105L206.042 221.305L203.271 220.156C196.217 217.231 188.886 214.839 181.329 213.031L178.411 212.333L177.706 215.281C178.195 215.387 178.683 215.496 179.17 215.607C179.658 215.718 180.145 215.832 180.631 215.948C188.033 217.719 195.213 220.062 202.121 222.927C202.584 223.118 203.044 223.312 203.504 223.509C203.964 223.705 204.423 223.904 204.881 224.105ZM242.782 248.472L244.751 246.168L242.471 244.219C236.632 239.227 230.396 234.684 223.818 230.645L221.262 229.075L219.676 231.658C220.107 231.911 220.538 232.166 220.966 232.423C221.395 232.68 221.823 232.94 222.249 233.201C228.692 237.158 234.801 241.608 240.522 246.499C240.902 246.824 241.28 247.151 241.657 247.479C242.033 247.808 242.408 248.139 242.782 248.472ZM271.342 283.324L273.925 281.738L272.355 279.182C268.316 272.604 263.773 266.368 258.781 260.529L256.832 258.249L254.528 260.218C254.861 260.592 255.192 260.967 255.521 261.343C255.849 261.72 256.176 262.098 256.501 262.478C261.392 268.199 265.842 274.308 269.799 280.751C270.06 281.177 270.32 281.605 270.577 282.034C270.834 282.462 271.089 282.893 271.342 283.324ZM287.719 325.294L290.667 324.589L289.969 321.671C288.161 314.114 285.769 306.783 282.844 299.729L281.695 296.958L278.895 298.119C279.096 298.577 279.295 299.036 279.491 299.496C279.688 299.956 279.882 300.416 280.073 300.879C282.938 307.787 285.281 314.967 287.052 322.369C287.168 322.855 287.282 323.342 287.393 323.83C287.504 324.317 287.613 324.805 287.719 325.294Z" fill="#F91212" fill-opacity="0.16"/>
</svg>
