<svg width="142" height="152" viewBox="0 0 142 152" fill="none" xmlns="http://www.w3.org/2000/svg">
<path d="M12.6157 6.16216C12.6157 9.56543 9.79158 12.3243 6.30785 12.3243C2.82412 12.3243 0 9.56543 0 6.16216C0 2.75889 2.82412 0 6.30785 0C9.79158 0 12.6157 2.75889 12.6157 6.16216Z" fill="#E6E6E6"/>
<path d="M55.7438 6.16216C55.7438 9.56543 52.9197 12.3243 49.4359 12.3243C45.9522 12.3243 43.1281 9.56543 43.1281 6.16216C43.1281 2.75889 45.9522 0 49.4359 0C52.9197 0 55.7438 2.75889 55.7438 6.16216Z" fill="#E6E6E6"/>
<path d="M98.8719 6.16216C98.8719 9.56543 96.0478 12.3243 92.564 12.3243C89.0803 12.3243 86.2562 9.56543 86.2562 6.16216C86.2562 2.75889 89.0803 0 92.564 0C96.0478 0 98.8719 2.75889 98.8719 6.16216Z" fill="#E6E6E6"/>
<path d="M142 6.16216C142 9.56543 139.176 12.3243 135.692 12.3243C132.208 12.3243 129.384 9.56543 129.384 6.16216C129.384 2.75889 132.208 0 135.692 0C139.176 0 142 2.75889 142 6.16216Z" fill="#E6E6E6"/>
<path d="M12.6157 41.0811C12.6157 44.4843 9.79158 47.2432 6.30785 47.2432C2.82412 47.2432 0 44.4843 0 41.0811C0 37.6778 2.82412 34.9189 6.30785 34.9189C9.79158 34.9189 12.6157 37.6778 12.6157 41.0811Z" fill="#E6E6E6"/>
<path d="M55.7438 41.0811C55.7438 44.4843 52.9197 47.2432 49.4359 47.2432C45.9522 47.2432 43.1281 44.4843 43.1281 41.0811C43.1281 37.6778 45.9522 34.9189 49.4359 34.9189C52.9197 34.9189 55.7438 37.6778 55.7438 41.0811Z" fill="#E6E6E6"/>
<path d="M98.8719 41.0811C98.8719 44.4843 96.0478 47.2432 92.564 47.2432C89.0803 47.2432 86.2562 44.4843 86.2562 41.0811C86.2562 37.6778 89.0803 34.9189 92.564 34.9189C96.0478 34.9189 98.8719 37.6778 98.8719 41.0811Z" fill="#E6E6E6"/>
<path d="M142 41.0811C142 44.4843 139.176 47.2432 135.692 47.2432C132.208 47.2432 129.384 44.4843 129.384 41.0811C129.384 37.6778 132.208 34.9189 135.692 34.9189C139.176 34.9189 142 37.6778 142 41.0811Z" fill="#E6E6E6"/>
<path d="M12.6157 76C12.6157 79.4033 9.79158 82.1622 6.30785 82.1622C2.82412 82.1622 0 79.4033 0 76C0 72.5967 2.82412 69.8378 6.30785 69.8378C9.79158 69.8378 12.6157 72.5967 12.6157 76Z" fill="#E6E6E6"/>
<path d="M55.7438 76C55.7438 79.4033 52.9197 82.1622 49.4359 82.1622C45.9522 82.1622 43.1281 79.4033 43.1281 76C43.1281 72.5967 45.9522 69.8378 49.4359 69.8378C52.9197 69.8378 55.7438 72.5967 55.7438 76Z" fill="#E6E6E6"/>
<path d="M98.8719 76C98.8719 79.4033 96.0478 82.1622 92.564 82.1622C89.0803 82.1622 86.2562 79.4033 86.2562 76C86.2562 72.5967 89.0803 69.8378 92.564 69.8378C96.0478 69.8378 98.8719 72.5967 98.8719 76Z" fill="#E6E6E6"/>
<path d="M142 76C142 79.4033 139.176 82.1622 135.692 82.1622C132.208 82.1622 129.384 79.4033 129.384 76C129.384 72.5967 132.208 69.8378 135.692 69.8378C139.176 69.8378 142 72.5967 142 76Z" fill="#E6E6E6"/>
<path d="M12.6157 110.919C12.6157 114.322 9.79158 117.081 6.30785 117.081C2.82412 117.081 0 114.322 0 110.919C0 107.516 2.82412 104.757 6.30785 104.757C9.79158 104.757 12.6157 107.516 12.6157 110.919Z" fill="#E6E6E6"/>
<path d="M55.7438 110.919C55.7438 114.322 52.9197 117.081 49.4359 117.081C45.9522 117.081 43.1281 114.322 43.1281 110.919C43.1281 107.516 45.9522 104.757 49.4359 104.757C52.9197 104.757 55.7438 107.516 55.7438 110.919Z" fill="#E6E6E6"/>
<path d="M98.8719 110.919C98.8719 114.322 96.0478 117.081 92.564 117.081C89.0803 117.081 86.2562 114.322 86.2562 110.919C86.2562 107.516 89.0803 104.757 92.564 104.757C96.0478 104.757 98.8719 107.516 98.8719 110.919Z" fill="#E6E6E6"/>
<path d="M142 110.919C142 114.322 139.176 117.081 135.692 117.081C132.208 117.081 129.384 114.322 129.384 110.919C129.384 107.516 132.208 104.757 135.692 104.757C139.176 104.757 142 107.516 142 110.919Z" fill="#E6E6E6"/>
<path d="M12.6157 145.838C12.6157 149.241 9.79158 152 6.30785 152C2.82412 152 0 149.241 0 145.838C0 142.435 2.82412 139.676 6.30785 139.676C9.79158 139.676 12.6157 142.435 12.6157 145.838Z" fill="#E6E6E6"/>
<path d="M55.7438 145.838C55.7438 149.241 52.9197 152 49.4359 152C45.9522 152 43.1281 149.241 43.1281 145.838C43.1281 142.435 45.9522 139.676 49.4359 139.676C52.9197 139.676 55.7438 142.435 55.7438 145.838Z" fill="#E6E6E6"/>
<path d="M98.8719 145.838C98.8719 149.241 96.0478 152 92.564 152C89.0803 152 86.2562 149.241 86.2562 145.838C86.2562 142.435 89.0803 139.676 92.564 139.676C96.0478 139.676 98.8719 142.435 98.8719 145.838Z" fill="#E6E6E6"/>
<path d="M142 145.838C142 149.241 139.176 152 135.692 152C132.208 152 129.384 149.241 129.384 145.838C129.384 142.435 132.208 139.676 135.692 139.676C139.176 139.676 142 142.435 142 145.838Z" fill="#E6E6E6"/>
</svg>
